# xmcd
#
# Track frame offsets: 
#        150
#        17546
#        34036
#        52342
#        71677
#        85263
#        97109
#        111543
#        128825
#        145077
#        159948
#        174553
#        191254
#        206310
#        219289
#        233476
#        247746
#        264011
#        280200
#        294162
#        311272
#
# Disc length: 4336 seconds
#
# Revision: 0
# Processed by: cddbd v1.5.2PL0 Copyright (c) Steve Scherf et al.
# Submitted via: ExactAudioCopy v1.1
#
DISCID=1810ee15
DTITLE=Various Artist - MNM - Het Beste Van De Teens 2010-2017 - CD 2
DYEAR=2018
DGENRE=Top 40
TTITLE0=Justin Bieber - Love Yourself
TTITLE1=Sia Feat. Sean Paul - Cheap Thrills
TTITLE2=Tom Odell - Another Love
TTITLE3=Ben Howard - The Fear
TTITLE4=Bazart - Goud
TTITLE5=Martin Solveig and GTA - Intoxicated
TTITLE6=Duck Sauce - Barbra Streisand
TTITLE7=Editors - Papillon
TTITLE8=Tourist LeMC feat. Spiritually Wally - Horizon
TTITLE9=Rag'n'Bone Man - Human
TTITLE10=Matt Simons - Catch and Release (Deepend Remix)
TTITLE11=Kygo Feat. Parson James - Stole The Show
TTITLE12=George Ezra - Budapest
TTITLE13=Daan - Icon
TTITLE14=Goodwill and Hook N Sling - Take You Higher
TTITLE15=Otto Knows - Million Voices
TTITLE16=Edward Maya and Vika Jigulina - Stereo Love
TTITLE17=Sak Noel - Loca People
TTITLE18=Stan Van Samang - A Simple Life
TTITLE19=Owl City - Fireflies
TTITLE20=The Broken Circle Breakdown Bluegrass Band - If I Needed You
EXTD=
EXTT0=
EXTT1=
EXTT2=
EXTT3=
EXTT4=
EXTT5=
EXTT6=
EXTT7=
EXTT8=
EXTT9=
EXTT10=
EXTT11=
EXTT12=
EXTT13=
EXTT14=
EXTT15=
EXTT16=
EXTT17=
EXTT18=
EXTT19=
EXTT20=
PLAYORDER=
